<?xml version="1.0" encoding="UTF-8"?>
<!DOCTYPE svg PUBLIC "-//W3C//DTD SVG 1.1//EN" "http://www.w3.org/Graphics/SVG/1.1/DTD/svg11.dtd">
<!-- Creator: CorelDRAW 2019 (64-Bit) -->
<svg xmlns="http://www.w3.org/2000/svg" xml:space="preserve" width="256.856mm" height="46.6463mm" version="1.1" style="shape-rendering:geometricPrecision; text-rendering:geometricPrecision; image-rendering:optimizeQuality; fill-rule:evenodd; clip-rule:evenodd"
viewBox="0 0 25698.53 4666.98"
 xmlns:xlink="http://www.w3.org/1999/xlink"
 xmlns:xodm="http://www.corel.com/coreldraw/odm/2003">
 <defs>
  <style type="text/css">
   <![CDATA[
    .fil0 {fill:#091932}
    .fil2 {fill:#091932;fill-rule:nonzero}
    .fil1 {fill:#091932;fill-rule:nonzero}
    .fil3 {fill:#091932;fill-rule:nonzero}
   ]]>
  </style>
 </defs>
 <g id="Слой_x0020_1">
  <metadata id="CorelCorpID_0Corel-Layer"/>
  <g id="_1112318624">
   <path class="fil0" d="M12935.71 4666.98c-1247.76,0 -2266.94,-978.64 -2331.85,-2210.22 -1.78,-33.74 9.17,-63.41 32.43,-87.91 23.24,-24.51 52.32,-37.01 86.1,-37.01l2.37 0c65.19,0 118.85,50.85 122.4,115.94 60.16,1101.29 972.24,1975.77 2088.55,1975.77 1155.22,0 2091.72,-936.5 2091.72,-2091.71 0,-1117.51 -876.36,-2030.35 -1979.31,-2088.75 -63.06,-3.34 -112.41,-55.33 -112.41,-118.47l0 -1.93c0,-34.95 12.95,-65.02 38.34,-89.05 25.36,-24.01 56.1,-35.33 90.99,-33.42 1229.51,67.1 2205.82,1085.35 2205.82,2331.62 0,1289.66 -1045.48,2335.14 -2335.14,2335.14z"/>
   <path class="fil0" d="M12935.98 4278.71c-622.39,0 -1176.54,-292.1 -1532.88,-746.68 -27.74,-35.39 -28.52,-83.13 -1.96,-119.42l3.21 -4.38c18.9,-25.83 46.21,-39.96 78.21,-40.48 32,-0.52 59.75,12.74 79.47,37.94 319.14,407.88 815.9,670.09 1373.95,670.09 962.99,0 1743.67,-780.67 1743.67,-1743.67 0,-931.57 -730.8,-1692.53 -1650.24,-1741.22 -52.57,-2.78 -93.7,-46.12 -93.7,-98.76l0 -1.6c0,-29.13 10.8,-54.22 31.95,-74.24 21.15,-20.03 46.78,-29.45 75.86,-27.86 1024.94,55.94 1839.06,904.76 1839.06,1943.68 0,1075.07 -871.53,1946.6 -1946.6,1946.6z"/>
   <path class="fil0" d="M12935.71 3847.52l0 -1.46c0,-44.26 34.53,-80.69 78.71,-83.08 754.26,-40.87 1353.73,-665.66 1353.73,-1430.36 0,-765.28 -600.42,-1390.42 -1355.48,-1430.41 -43.17,-2.28 -76.96,-37.89 -76.96,-81.13l0 -1.31c0,-23.93 8.87,-44.54 26.24,-60.99 17.38,-16.45 38.41,-24.19 62.29,-22.89 841.69,45.96 1510.55,743.26 1510.55,1596.73 0,853.74 -669.26,1552.4 -1511.38,1598.02 -23.66,1.29 -44.49,-6.39 -61.71,-22.69 -17.21,-16.31 -25.99,-36.72 -25.99,-60.43z"/>
   <path class="fil0" d="M12937.26 1311.99c11.29,0 22.51,0.25 33.71,0.62 8.64,2.13 16.78,4.72 24.29,7.84 35.56,14.82 32.27,37.68 62.04,44.98 5.14,1.27 10.36,1.81 14.84,3.21 5.49,1.72 8.4,2.22 8.24,8.29 -7.13,2.9 -23.5,-0.45 -33.52,-0.45 -22.93,0 -19.98,22.61 -6.98,24.49 10.08,1.46 27.95,-8.89 44.19,-3.56 -2.51,5.29 -15.89,2.82 -26.9,14.08 -6.84,6.99 -11.11,17.41 -8.37,29.85 4.8,21.78 28.49,24.72 39.12,41.52 13.28,21.03 12.9,29.08 34.4,46.21 46.3,36.88 85.45,9.47 106.18,22.57 8.75,5.53 12.85,19.94 26.71,21.37 15.67,1.61 21.61,-11.48 23.55,-25.24 3.49,-24.82 -7.15,-27.59 -8.91,-37.99 6.98,-2.56 18.25,-3.45 13.7,-16.64 -2.99,-8.65 -7.37,-14.59 0.02,-23.68 10.35,-12.73 29.89,-4.98 46.85,-13.33 7.78,-3.83 13.22,-8.73 17.32,-14.01 4.75,-6.12 6.84,-13.26 14.12,-15.93 9.92,-3.64 15.36,0.59 21.87,-8.22 0.66,-0.9 1.29,-1.74 1.91,-2.52 157.2,76.92 291.7,193.05 390.84,335.61 -6.7,-2.6 -14.73,-6.1 -17.93,-0.45 -2.3,10.61 7.49,6.41 4.6,17.91 -9.5,2.26 -28.71,-5.01 -27.23,17.29 -9.82,2.64 -14.99,8.5 -21.25,8.88 -9.38,0.57 -19,-6.2 -24.19,-3.89 -3.65,1.61 -5.75,6.89 -3.01,11.59 2.08,3.55 6.02,2.73 10.69,3.95 17.61,4.63 35.29,35.69 37.87,52.37 3.55,22.86 -24.16,16.85 -38.21,12.61 -2.88,-5.15 -3.6,-12.64 -13.58,-8.44 -4.01,1.68 -1.75,3.04 -7.38,1.01 -7.83,-2.85 -19.94,-9.15 -23.99,1.38 -3.09,8.06 3.81,11.28 3.63,17.06 -0.12,3.7 -2.69,3.99 -1.7,9.38 0.5,2.67 2.59,4.85 3.73,8.31 6.13,18.53 -8.98,27.67 -7.12,36.07 1.3,5.84 7.21,7.77 10.04,12.8 4.99,8.9 -2.33,13.11 0.52,21 2.44,6.73 9.16,5.9 16.5,6.69 19.14,2.03 19.69,15.85 30.74,13.5 7.93,-1.68 7.12,-7.85 15.08,-9.27 14.34,-2.56 36.43,13.32 36.43,-27.35 0,-3.93 2.68,-12.81 3.68,-17.65 3.39,-16.47 21.87,-6.25 21.8,-30.53 -0.01,-2.4 -0.43,-1.72 0.2,-4.27 3.16,-12.85 12.96,6.14 18.59,7.03 11.4,1.81 9.96,-7.99 17.49,-10.46 9.76,-3.19 13.51,4.8 15.29,12.22 8.18,33.98 25.28,34 46.21,66.83 5.15,8.1 4.12,16.86 6.94,20.76 8.06,1.02 6.24,-6.1 6.4,-13.65 13.54,37.13 24.93,75.27 34.14,114.27 -10.1,4.24 -16.95,-2.78 -25.4,-9.9 -25.75,-21.69 -32.08,-18.49 -46.14,-52.51 -9.2,-22.26 -31.35,-39.16 -58.61,-39.16 -31.35,0 -30.94,11.83 -47.69,16.34 -12.58,3.38 -14.62,-2.82 -22.87,-5.59 -4.21,-1.41 -8.98,-1.19 -12.69,-2.99 -3.4,-1.65 -5,-5.1 -8.62,-5.82 -4.64,-0.93 -8.06,2.19 -8.81,5.93 -0.82,4.05 1.14,6.63 -0.13,12.02 -1.62,6.8 -10.24,9.68 -15.27,14.76 -17.31,17.4 -20.3,33.34 -17.41,57.58 -26.81,18.44 -40.7,55.44 -61.38,80.21l-8.89 10.34c-14.12,17.17 -25.66,29.98 -24.43,55.7 0.54,11.58 4.29,22.11 9.09,30.31 5.27,8.98 10.95,14.76 10.95,28.74 0,12.09 -3.65,27.43 -10.4,32.92 -17.69,14.37 2.81,21.38 3.66,27.25 -1.19,8.15 -11,14.72 -3.13,27.88l16.45 18.5c8.72,10.81 16.98,26.99 27.83,40.75 15.2,19.25 38.32,31.46 53.71,49.76 18.89,22.45 13.45,11.73 49.33,7.66 11.14,-1.27 21.13,-0.6 32.24,-1.38 23.71,-1.68 34.72,-7.53 54.94,-13.65 17.87,-5.39 17.08,-0.34 26.25,4.67 11.28,6.17 11.87,-0.25 21.62,12.04 12.84,16.16 -4.5,35.11 -4.5,55.91 0,29.61 20.76,54.39 20.76,97.46 0,43.2 -19.21,55.88 -31.9,93.22 -8.2,24.17 -13.17,49.1 -15.6,75.39 -173.3,317.35 -510.06,532.65 -897.12,532.65 -30.74,0 -61.13,-1.43 -91.17,-4.09 0.45,-3.94 2.01,-7.72 4.3,-10.48 1.46,-1.75 14.07,-13.08 15.83,-14.24 16.26,-10.77 26.99,2 40.02,-20.13 3.59,-6.11 8.44,-10.89 17.15,-12.91 12.21,-2.85 17.72,1.32 28.41,1.32 17.83,0 22.32,-11.85 29.59,-21.59 10.22,-13.73 57.55,-22.06 88.71,-61.67 10.51,-13.35 9.01,-15.53 26.58,-23.95 22.59,-10.83 -5.72,-44.03 45.4,-55.63 13.77,-3.12 26.18,-9.13 37.86,-11.42 16.52,-3.22 28.7,-0.38 39.53,-11.12 12.83,-12.71 8.84,-20.13 17.78,-32.77 7,-9.9 14.45,-18.3 20.97,-29.53 20.24,-34.86 14.93,-45.28 23.43,-76.49 3.79,-13.92 12.37,-18.88 21.09,-28.19 9.42,-10.06 18.15,-8.82 26.29,-24.27 6.03,-11.44 8.99,-25.94 8.99,-40.31 0,-16.01 -6.45,-22.03 -22.83,-23.04 -16.58,-1.04 -18.35,-7.26 -28.42,-13.56 -17.79,-11.11 -42.08,-11.48 -64.13,-18.88 -34.13,-11.45 -46.71,-29.07 -90.8,-35.6 -9.75,-1.45 -30.95,-0.4 -36.72,-3.9 -1.86,-10.52 5.25,-8.81 3.05,-17.65 -1.2,-4.79 -6.9,-7.87 -9.44,-12.31 -5.5,-9.56 -5.19,-18.18 -13.4,-29.88 -8.09,-11.56 -32.01,-32.03 -56.21,-29.27 -28.36,3.26 -35.25,5 -56.36,-15.81 -9.71,-9.56 -11.43,-21.71 -28.34,-24.44 -7.79,-1.25 -16.18,-0.68 -21.22,-5.4 -5.44,-5.09 -3.22,-12.2 -9.76,-16.72 -4.53,-3.13 -12.96,-3.22 -19.58,-6.83 -27.52,-15.03 -31.56,2.03 -47.83,-3.99 -7.75,-2.87 -8.8,-9.28 -22.56,-10.29 -10.9,-0.79 -18.05,6.62 -26.31,-0.94 -3.62,-3.31 -3.8,-4.68 -9.22,-7.69 -11.66,-6.48 -27.8,-0.59 -33.74,8.47 -7.82,11.97 1.85,28.73 -9.1,24.96 -22.67,-7.8 0.76,-52.6 -29.11,-72.12 -14.04,-9.17 -28.62,-4.75 -41.79,0.8 -16.95,7.14 -30.22,-0.61 -38.41,-9.63 -30.67,-33.75 -1.4,-63 -13.32,-87.72 -4.55,-9.43 -17.19,-21.15 -32.46,-20.27 -13.36,0.76 -40.92,4.33 -47.95,-8.79 -3.26,-6.1 -1.47,-28.73 -0.19,-35.91 6.86,-38.63 26.95,-39.11 22.96,-53.18 -4.93,-2.44 -12.17,-2.24 -18.14,-2.24 -69.72,0 -20.46,54.73 -74.58,54.73 -32.36,0 -48.29,-6.77 -63.43,-27.4 -11.81,-16.1 -22,-33.56 -22,-59.8 0,-30.47 7.47,-24.38 14.17,-39.94 5.23,-12.18 4.86,-21.64 13.49,-34.68 16.39,-24.76 40.16,-33.43 74.61,-32.77 49.57,0.96 61.94,-38.89 97.07,-13.74 13.76,9.85 19.19,-1.1 31.44,0.94 20.8,3.46 17.75,35.4 26.48,54.18 4.87,10.47 16.36,32.16 29.02,31.33 9.73,-0.64 8.51,-10.65 8.51,-18.27 0,-36.95 -31.13,-81.24 -12.35,-106.19 17.17,-22.8 41.3,-20.46 67.53,-62.38 17.71,-28.29 12.72,-39.03 20.74,-64.73 5.71,-18.27 12.72,-12.12 22.68,-20.61 7.93,-6.75 8.22,-18.05 16.83,-26.49 14.86,-14.59 29.59,-18.56 43.78,-42.86 12.3,-21.05 25.2,-31.75 50.55,-36.11 20.39,-3.5 16.37,0.56 33.49,-9.78 8.32,-5.02 21.48,-9.72 31.65,-6.81 -2.78,12.16 -25.49,10.71 -30.89,20.83 -3.91,7.35 0.5,15.12 6.77,16.56 9.83,2.28 11.4,-3.43 14.77,-8.29 19.88,-28.73 74.54,-8.98 56.16,-35.67 -16.96,-2.61 -30.61,4.31 -44.89,-10.99 -6.6,-7.06 -5.33,-10.34 -10.43,-17.22 -4.63,-6.27 -12.61,-6.96 -13.96,-13.15 5.9,-2.19 14.7,-1.91 18.44,-5.48 4.36,-4.17 4.51,-13.03 -0.22,-16.94 -6.67,-5.52 -32.44,-1.32 -41.26,0.68 -13.84,3.14 -22.81,7.67 -32.67,14.29 -7.76,5.22 -6.38,5.84 -12.18,11.92 -2.54,2.66 -8.6,8.38 -13.78,9.07 -0.74,-10.84 13.47,-18.63 20.41,-24.08 4.41,-3.47 7.82,-5.71 11.64,-10.02 11.04,-12.43 30.27,-14.97 44.78,-21.39 36.25,-16.01 48.17,-3.07 74.84,-3.07 29.45,0 32.86,-16.89 54.74,-19.02 12.94,-1.27 19.64,1.3 28.81,-7.25 15.46,-14.41 10.3,-30.69 11.21,-49.85 1.29,-25.56 -21.59,-47.55 -46.62,-47.55 -19.38,0 -40.37,16.26 -56.31,-3.24 -9.11,-11.17 -3.43,-30.76 -26.86,-39.46 0.91,-20.17 -18.98,-25.69 -28.6,-13.1 -2.31,3.02 -2.73,5.44 -5.7,8.72 -7.11,7.83 -17.82,10.75 -29.06,10.1 -16.3,-0.94 -29.06,-5.98 -30.57,-23.64 -1.61,-19.11 -14.49,-17.56 -26.17,-26.64 -32.69,-25.39 -38.1,-14 -61.41,-14.47 -10.91,-0.21 -32.24,-5.72 -35.62,-4.48 -8.47,3.12 -5.22,11.68 -4.05,17.92 0.88,4.74 -0.13,7.7 0.68,12.56 1.19,7.25 4.77,13.86 0.79,21.28 -3.25,6.05 -9.77,6.76 -10.95,15.6 -2.38,17.98 16.99,15.55 22.38,31.39 5.44,15.99 -8.92,28.51 -16.73,34.4 -11.01,8.28 -25.31,10.22 -25.55,29.02 -0.21,15.8 8.49,29.59 -0.77,46.93 -2.9,5.42 -8.69,10.56 -16.82,10.54 -22.3,-0.05 -22.79,-38.89 -25.91,-53.29 -4.93,-22.68 -22.48,-36.03 -43.84,-37.17 -9.9,-0.53 -15.46,2.92 -24.11,2.92 -21.11,0 -52.26,-4.29 -70.04,-12.97 -13.3,-6.49 -11.85,-8.13 -20.01,-18.5 -19.13,-24.27 -9.44,-46.15 5.55,-67.48 10.33,-14.68 5.22,-20.44 23.99,-28.93 11.85,-5.36 27.77,-6.66 40.98,-11.95 6.14,-2.46 12.48,-5.83 17.5,-9 5.29,-3.33 12.05,-6.86 10.85,-13.99 -7.82,-1.9 -11.39,5.74 -18.12,2.8 1.85,-7.03 14.57,0.44 23.86,-16.76 3.43,-6.35 12.82,-17.81 22.66,-14.49 5.52,1.86 7.99,5.72 15.17,1.88 8.8,-4.72 2.84,-3.72 16,-4.79 6.62,-0.54 10.22,-3.02 13.87,-6.31 3.59,-3.24 9.17,-4.88 11.88,-7.38 5.19,-4.8 2.66,-10.77 -2.25,-13.95 -9.98,-6.43 -11.71,-16.15 -25.72,-15.68 -7.38,0.25 -9.57,3.37 -14.4,5.32 -6.1,2.48 -11.26,0.53 -12.8,7.57 -1.78,8.13 1.49,9.38 -5.77,13.54 -7.12,4.07 -23.26,9.02 -30.82,1.72 2.2,-5.97 6.48,-2.54 7.61,-9.75 0.93,-5.88 -2.51,-9.33 -7.62,-9.64 -11.67,-0.7 -16.1,9.17 -22.82,10.89 -5.46,-3.17 -9.3,-14.44 -24.87,-10.42 -11.35,2.93 -11.16,10.99 -16.4,18.56 -4.59,6.65 -12.66,8.04 -18.75,17.39 -4.95,7.58 -7.99,13.94 -20.6,13.94 -19.93,0 -16.05,-15.67 -57.71,1.54 -21.26,8.78 -40.09,3.93 -60.88,10.11 -20.23,6.01 -25.39,14.46 -51.07,19.93 -13.76,2.92 -36.14,12.83 -51.49,9.37 178.37,-152.21 409.75,-244.12 662.61,-244.12zm939.09 619c3.95,9.21 7.8,18.48 11.5,27.82 -2.29,-3.52 -4.59,-6.87 -7.71,-10.8 -10.29,-12.92 -24.71,-22.12 -26.43,-40.87 5.18,1.99 6.07,4.76 9.13,8.81 5.13,6.78 9.54,11.38 13.52,15.03zm-1123.84 1407.28c-475.95,-86.95 -836.74,-503.71 -836.74,-1004.79 0,-187.43 50.54,-363.04 138.64,-514.05 1.12,0.24 2.29,0.73 3.49,1.52 5.17,3.43 11.64,27.46 15.39,35.26 5.78,11.98 11.88,19.92 16.05,34.44 4.06,14.13 6.16,29.94 4.29,45.7 -2.89,24.3 -30.17,61.62 -13.13,127.93 3.56,13.84 8.48,24.61 11.4,39.18 3.31,16.53 -0.36,29.61 15.37,35.18 43.12,15.25 17.97,33.49 36.06,64.98 3.26,5.68 7.18,7.68 11.23,14.08 13.02,20.63 -0.29,29.03 10.96,37.18 7.23,5.24 8.56,3.92 14.53,10.75 10.98,12.55 4.39,17.8 14.95,35.59 3.42,5.77 6.38,9.66 10.77,14.45 3.65,3.97 7.15,9.98 14.91,7.64 2.64,-11.89 -13.45,-12.78 -16.17,-35.32 -2.07,-17.17 -13.16,-45.36 -24.78,-54.55 -20.82,-16.45 -20.87,-51.36 -14.03,-55.51 13.58,-8.24 12.05,26.61 32.69,53.7 4.72,6.2 8.66,10.41 13.14,15.77 7.47,8.96 6.85,7.2 9.37,20.8 1.51,8.16 9.01,10.74 13.79,14.98 54.8,48.61 26.04,86.76 63.82,110.66 9.21,5.82 28.68,12.58 40.28,17.48 12.78,5.39 28.13,12.62 38.6,19.18 17.04,10.68 15.53,17.54 41.55,10.35 22.62,-6.26 30.14,4.79 37.37,17.76 13.81,24.78 53.59,20.95 81.67,35.06 15.79,7.93 18.41,15.25 24.33,34.62 6.02,19.69 11,21.11 28.51,29.23l58.4 28.21c7.29,4.27 7.4,11.91 19.13,10.19 7.22,-10.5 1.99,-5.73 3.65,-16.34 3.12,-19.96 47.91,-4.78 32.1,14.13 -3.55,4.23 -10.45,3.4 -15.61,7.25 -3.52,2.63 -2.65,3.73 -6.45,5.52 -3.28,1.55 -5.18,0.97 -8.89,1.95 -11.68,3.1 -9.88,16.61 -17.19,27.37 -3.43,5.06 -6.94,7.16 -10.55,12.33 -13.24,19 -13.2,32.17 -10.23,53.83 5.7,41.56 -18.37,41.14 -26.73,63.44 -21.23,3.97 -10.42,8.33 -15.35,25.35 -2.28,7.85 -4.01,7.69 -7.61,12.8 -3.24,4.58 -3.06,11.83 1.22,15.58 4.1,3.6 10.66,2.74 11.89,8.38 2.14,9.87 -16.9,12.09 -18.53,21.35 -1.54,8.7 3.59,9.38 6.1,14.23 0.04,7.59 -2.99,4.86 -1.09,13.25 1.69,2.64 32.99,12.81 45.22,43.57 16.6,41.72 42.25,74.43 78.6,99.47 24.76,17.06 27.07,14.22 44.28,23.13 27.34,14.18 23.43,59.51 21.98,88.92 -1.81,36.87 -19.49,43.1 -16.86,72.07 1.23,13.53 5.4,25.15 -0.99,39 -5.5,11.94 -10.27,16.62 -11.65,33.24 -1.43,17.33 3.2,24.14 6.55,38.39 3.11,13.25 2.02,19.31 0.31,24.15zm140.01 -932.97c4.88,1.76 18.72,0.05 23.91,-1.3l0.3 -6.97c-3.54,-0.77 -12.73,-1.61 -16.89,-2.14 -8.78,-1.15 -9.35,3.63 -7.32,10.42zm737.45 -731.82c-3.84,1.94 -9.41,-4.61 -15.49,-3.42 -1.24,6.62 4.53,13.43 7.27,18.1 7.05,12.03 -6.48,34.93 20.15,26.36 8.25,-2.65 14.38,3.36 20.16,-4.24 6.81,-8.97 -1.48,-12.9 -3.51,-17.66 -1.86,-4.37 -3.14,-16.58 -5.41,-21.28 -1.53,-3.17 -3.32,-4.19 -7.26,-5.03 -10.03,-2.12 -1.71,0.8 -9.91,-3.44 -4.18,-2.16 -9.35,-0.45 -6.79,6.94 1.11,3.22 0.28,-0.31 0.83,2.06 0.6,2.6 1.22,-0.45 -0.03,1.61zm-843.33 720.94c-13.21,0 -15.04,-2.33 -17.25,-2.3 -4.8,0.07 -10.03,9.74 4.95,10.64 3.69,0.22 7.36,0.09 11.08,0.02 6.73,-0.15 16.51,-0.83 22.8,-0.24 -1.47,10.32 3.23,13.49 13.08,11.16 1.91,-3.21 2.76,-7.42 4.42,-11.3 5.3,-0.72 8.21,0.46 13.1,-0.37 11.36,-1.95 16.45,-6.33 23.5,-0.76 4.64,3.66 13.48,5.46 3.78,-10.02 -4.73,-7.55 -8.39,-2.26 -17.84,-11.42 -2.45,-2.37 -3.48,-5.19 -8.28,-6.39 -1.3,-0.33 -24.54,-3.21 -25.19,-3.11 -4.64,0.71 -6.92,2.83 -12.01,2.32 -6.35,-0.65 -21.32,-8.28 -20.63,1.53 0.41,5.88 5.06,3.85 8.94,5.31 3.11,1.18 13.12,14.93 -4.45,14.93zm-194.95 -58.42c5.44,0.66 7.85,-2.4 17,-7.79 11.33,-6.68 10.41,-8.16 19.62,-7.54 3.04,3.72 2.25,5.21 9.09,6.48 4.27,0.79 10.06,0.12 13.96,1.81 2.51,1.1 15.19,9.16 21.74,9.96 21.4,2.58 12.82,0.17 21.51,10.21 5.77,6.65 16.01,3.08 20.18,12.98 -3.02,5.7 -8.92,3.66 -4.61,11.76 5.66,4.75 2.55,-5.03 28.7,-4.08 7.8,0.29 22.98,0.93 27.99,-1.65 4.04,-17.59 -13.9,-3.18 -30.18,-18.33 -5,-4.65 -5.78,-3.4 -12.73,-4.52 -12.5,-2.01 -9.19,-10.98 -19.31,-13.57 -19.58,-5.02 -36.81,-16.52 -48.7,-16.5 -12.58,0.02 -4.49,-4.13 -28.08,-4.2 -13.59,-0.04 -46.97,10.93 -36.19,25zm1057.88 -685.63c3.23,6.19 6.91,5 11.26,9.67 6.61,7.11 3.32,7.73 6.46,15.49 3.12,7.68 8.56,3.37 13.47,8.54 1.92,2.02 2.09,4.14 4.49,6.43 2.77,2.65 3.11,1.93 5.83,5.03 1.75,10.1 -2.28,9.32 -7.17,13.03 -0.86,6.11 0.61,7.12 -0.2,13.53 -0.55,4.42 -1.34,6.69 -0.12,11.67 5.36,21.8 28.68,15.19 36.94,17.96 4.2,1.41 7.17,1.18 10.92,2.53 5.9,2.13 3.51,3.78 11.09,1.12 2.15,-5.57 0.22,-6.58 -2.16,-18.84 -1.57,-8.13 -6.6,-6.94 -11.2,-12.97 -2.69,-3.51 -5.36,-15.11 -16.64,-31 -10.82,-15.25 -22.08,-20.51 -27.88,-31.92 -2.02,-3.97 -0.69,-12.96 -8.67,-15.84 -5.7,-2.06 -5.23,0.7 -9.52,-2.69 -2.5,-4.65 2.57,-20.68 -11.38,-17.15 -4.22,1.06 -5.93,3.94 -5.65,9.42 0.3,5.67 -0.4,11.71 0.15,15.97zm-1005.23 -241.04c-1.47,-5.7 1.33,-5.89 -2.4,-8.63 -3.11,-2.28 -4.84,0.18 -7.12,-3.81 -3.63,-6.37 1.46,-11.53 -0.39,-19.22 -10.71,-4.13 -7.73,4.14 -34.58,9 -1.84,2.68 -1.35,3.3 -3.06,5.5 -0.31,0.39 -12.77,11.38 -9.63,18.09 2.45,5.28 8.5,2.38 13.41,2.85 9.92,0.93 11.25,-0.23 13.87,0.1 5.89,0.75 1.57,-0.33 3.57,1.54 -6.15,6.63 -14.66,-0.46 -24.58,3.27 -3.21,13.5 5.35,8.11 18.65,7.93 6.04,-0.09 6.57,-1.51 11.05,-1.71 4.46,-0.21 5,1.2 9.48,0.98 3.93,-0.18 4.97,-1 9.98,-0.87 8.35,0.2 11.85,-0.43 20.82,0.25 5.93,0.44 5.23,-0.55 9.88,-1.37 8.73,-1.54 16.4,3.83 28.05,-5.85 8,-6.66 4.48,-4.08 15.61,-4.55 8.78,-0.37 8.41,-5.82 13.54,-8.97 4.87,3.13 1.92,4.43 10.76,6.33 8.45,1.82 6.44,3.03 12.47,5.78 5.25,2.4 9.67,1.51 15.16,3.2 4.73,1.46 7.14,4.95 11.13,7.15l24.75 11.85c6.8,1.85 8.38,0.95 12.58,5.74 10.27,11.71 10.98,8.83 -2.76,20.73 -5.87,5.09 -10.5,3.5 -15.8,7.08 -2.88,11.08 2.96,9.17 7.24,15.06 -4.99,5.31 -10.55,3.46 -18.95,5.22 -6.79,1.42 -14.32,5.49 -20.14,3.59 -12.44,-4.06 -7.25,-3.58 -18.78,1.46 -7.51,3.29 -14.48,3.1 -12.32,12.55 1.12,1.7 22.18,7.06 35.92,0.14 16.51,-8.32 14,-9.79 32.56,-4.02 9.89,3.07 7.88,1.16 15.35,6.67 5.21,3.83 10.86,3.75 12.86,9.11 2.5,6.73 1.6,11.18 10.09,11.28 6.35,0.07 13.82,-0.86 20.72,0.71 2.43,3.55 3.08,8.45 8.2,10.06 5.77,1.81 9.9,-1.5 17.13,-0.13 5.93,1.13 7.09,3.18 14.69,5.01 5.96,1.43 8.8,6.55 13.22,4.8 13.63,-5.41 -13.21,-22.2 -27.25,-25.09 -5.08,-1.04 -10.8,-2.38 -12.03,-7.18 10.87,-6.27 50.58,14.47 58.64,10.17 7.07,-8.32 -4.83,-8.21 0.9,-12.02 5.18,3.6 0.61,10.52 8.94,7.13 4.81,-10.51 -6.24,-13.33 -10.82,-18.06 -8.54,-8.84 -14.37,-5.73 -30.03,-15.17 -4.4,-2.65 -4.53,-4.32 -9.08,-6.78 -7.27,-3.92 -13.63,-8.59 -4.25,-16.15 2.84,3.43 0.36,3.4 2.49,7.92l4.67 0.11c2.43,-4.86 0.77,-6.53 2.14,-11.33 3.45,-1.21 10.15,1.89 14.38,3.71 7.91,3.38 4.64,3.97 15.89,4.84l2.4 9.38c5.91,0.9 9.39,-0.8 13.7,2.61 4.29,3.41 2.13,6.05 10.5,3.27l1.46 -9.47c8.14,-2.01 10.2,3.87 19.82,-3.43 4.35,-3.32 8.88,-9.61 7.02,-17.04 -6.15,-2.15 -7.51,-0.08 -13.71,-0.95 -6.47,-0.9 -4.21,-3.95 -11.13,-4.87 -14.5,-1.93 -10.74,3.78 -23.84,-7.66 -5.6,-4.9 -17.56,-3.24 -25.85,-5.82 -4.81,-1.49 -5.73,-4.27 -10.5,-5.49 -5.87,-1.5 -8.51,0.52 -14.64,-1.13 -1.45,-6.4 1.31,-8.79 3.05,-14.88 3.63,-12.68 5.68,-1.85 10.73,-9.99 -3,-10.11 -23.4,-3.65 -31.71,-2.07 5.89,-17.59 -7.43,-8.35 -12.94,-9.28 -13.59,-2.29 -14.67,-4.09 -19.92,-9.53 -6.68,-6.93 -13.45,-0.32 -22.05,0.05 -8.24,0.35 -19.57,2.71 -25.35,-2.09 1.72,-5.7 2.36,-2.19 8.3,-4.75 0.82,-8.02 -0.78,-6.7 -6.69,-9.66 -5.09,-2.55 -5.85,-3.59 -12.32,-1.19 -6.77,2.5 -19.21,4.55 -25.13,7.87 -8.24,4.62 -8.75,15.12 -19.35,6.21 -10.07,-8.47 -14.63,2.81 -25.38,2.15 -1.92,-5.53 4.09,-27.21 -11.74,-20.96 -6,2.37 -2.53,6.87 -12.57,5.19 -6.27,-1.06 -9.55,-2.69 -16.02,0.53 -4.43,2.21 -6.54,5.34 -8.69,9.63 -4,8.01 -4.75,5.48 -8.09,10.31 -4.37,6.29 2.06,7.16 3.64,11.1 2.4,5.95 -4.71,6.88 -9.79,5.95z"/>
   <path class="fil0" d="M12019.7 1388.65c-113.13,120.1 -226.4,193.48 -257.34,165.26 -32.2,-29.37 37.04,-157.69 154.64,-286.61 117.6,-128.91 239.03,-209.61 271.24,-180.24 30.93,28.22 -31.76,147.74 -141,271.4l-84.26 -76.87c-8.3,-7.57 -21.29,-6.97 -28.86,1.33l0 0c-7.57,8.29 -6.97,21.28 1.33,28.86l84.26 76.87zm-65.15 -266.6c111.26,-87.94 182.42,-81.75 196.83,-68.6 -79.29,33.83 -169.74,99.93 -255.82,194.3l-0.01 0.01 0 0c-86.08,94.37 -143.62,190.49 -170.05,272.55 -14.42,-13.15 -27.1,-83.48 50.35,-202.39l-23.08 -21.06c-16.07,-14.66 -17.23,-39.81 -2.56,-55.88l54.71 -59.98 -57.29 -52.27 -73.53 80.61c-4.36,4.77 -11.83,5.12 -16.61,0.76l0 0c-4.78,-4.36 -5.11,-11.85 -0.76,-16.62l73.53 -80.6 -44.25 -40.36 -87.29 95.7 -79.34 86.97 -73.51 -67.05 -126.29 138.44 85 77.54c4.78,4.36 5.12,11.84 0.76,16.62l0 0c-4.36,4.77 -11.84,5.12 -16.62,0.76l-84.99 -77.54 -71.56 78.45 84.99 77.53c4.78,4.36 5.12,11.84 0.76,16.62l0 0c-4.36,4.78 -11.83,5.12 -16.61,0.76l-84.99 -77.54 -71.57 78.45 85 77.53c4.78,4.36 5.12,11.84 0.76,16.62l0 0c-4.36,4.78 -11.84,5.12 -16.62,0.76l-84.99 -77.54 -71.56 78.45 84.99 77.54c4.78,4.36 5.12,11.83 0.76,16.61l0 0c-4.36,4.78 -11.84,5.12 -16.61,0.76l-85 -77.53 -71.56 78.45 84.99 77.53c4.78,4.36 5.12,11.84 0.76,16.62l0 0c-4.36,4.77 -11.83,5.12 -16.61,0.76l-84.99 -77.54 -59.28 64.98 78.59 71.69c8.3,7.57 8.9,20.56 1.33,28.86l0 0c-7.57,8.3 -20.56,8.89 -28.86,1.32l-174.56 -159.23c-8.3,-7.57 -8.89,-20.56 -1.32,-28.86l0 0c7.57,-8.3 20.56,-8.89 28.86,-1.32l78.58 71.69 59.28 -64.97 -84.99 -77.54c-4.78,-4.36 -5.13,-11.83 -0.77,-16.61l0 0c4.36,-4.78 11.84,-5.12 16.62,-0.76l84.99 77.53 71.57 -78.44 -85 -77.54c-4.78,-4.36 -5.12,-11.84 -0.76,-16.62l0 0c4.36,-4.77 11.84,-5.12 16.62,-0.76l84.99 77.54 71.56 -78.45 -84.99 -77.53c-4.78,-4.36 -5.12,-11.84 -0.76,-16.62l0 0c4.36,-4.78 11.84,-5.12 16.61,-0.76l85 77.53 71.56 -78.44 -84.99 -77.54c-4.78,-4.35 -5.13,-11.83 -0.77,-16.61l0 0c4.36,-4.78 11.84,-5.12 16.62,-0.76l84.99 77.53 71.56 -78.44 -84.99 -77.54c-4.78,-4.36 -5.12,-11.83 -0.76,-16.61l0 0c4.36,-4.78 11.84,-5.12 16.61,-0.76l85 77.53 126.29 -138.44 -73.51 -67.05 79.34 -86.97 87.29 -95.7 -172.24 -157.12c-4.77,-4.36 -5.11,-11.83 -0.75,-16.61l0 0c4.35,-4.78 11.83,-5.13 16.61,-0.77l172.24 157.12 87.29 -95.7 79.34 -86.97 73.51 67.05 126.29 -138.45 -84.99 -77.53c-4.78,-4.36 -5.13,-11.84 -0.77,-16.62l0 0c4.36,-4.78 11.84,-5.12 16.62,-0.76l84.99 77.54 71.56 -78.45 -84.99 -77.53c-4.78,-4.36 -5.12,-11.84 -0.76,-16.62l0 0c4.36,-4.78 11.84,-5.12 16.61,-0.76l85 77.53 71.56 -78.44 -84.99 -77.53c-4.78,-4.36 -5.13,-11.84 -0.77,-16.62l0 0c4.36,-4.78 11.84,-5.12 16.62,-0.76l84.99 77.53 71.57 -78.44 -85 -77.54c-4.77,-4.36 -5.12,-11.84 -0.76,-16.61l0 0c4.36,-4.78 11.84,-5.13 16.62,-0.77l84.99 77.54 71.56 -78.45 -84.99 -77.53c-4.78,-4.36 -5.12,-11.84 -0.76,-16.62l0 0c4.36,-4.78 11.84,-5.12 16.61,-0.76l85 77.54 59.27 -64.98 -78.59 -71.69c-8.3,-7.57 -8.89,-20.56 -1.32,-28.86l0 0c7.57,-8.3 20.56,-8.9 28.86,-1.33l174.55 159.24c8.3,7.57 8.9,20.56 1.33,28.86l0 0c-7.57,8.29 -20.56,8.89 -28.86,1.32l-78.59 -71.7 -59.28 64.98 85 77.53c4.78,4.36 5.12,11.84 0.76,16.62l0 0c-4.36,4.78 -11.84,5.12 -16.62,0.76l-84.99 -77.53 -71.56 78.44 84.99 77.54c4.78,4.36 5.12,11.84 0.76,16.61l0 0c-4.36,4.78 -11.84,5.13 -16.61,0.77l-85 -77.54 -71.56 78.45 84.99 77.53c4.78,4.36 5.12,11.84 0.76,16.62l0 0c-4.36,4.78 -11.83,5.12 -16.61,0.76l-84.99 -77.54 -71.57 78.45 85 77.53c4.77,4.36 5.12,11.84 0.76,16.62l0 0c-4.36,4.78 -11.84,5.12 -16.62,0.76l-84.99 -77.53 -71.56 78.44 84.99 77.53c4.78,4.36 5.12,11.84 0.76,16.62l0 0c-4.36,4.78 -11.83,5.12 -16.61,0.76l-84.99 -77.53 -126.29 138.44 73.5 67.05 -79.34 86.97 -87.29 95.7 44.24 40.36 73.53 -80.6c4.35,-4.77 11.84,-5.12 16.62,-0.76l0 0c4.78,4.36 5.12,11.83 0.76,16.61l-73.53 80.61 57.29 52.26 54.8 -60.07c14.66,-16.07 39.81,-17.23 55.88,-2.56l23.1 21.07zm167.33 332.17c-17.92,19.64 -48.36,21.04 -68,3.12 -16.64,-15.18 -20.19,-39.34 -10,-58.32l-102.63 -93.62c-4.78,-4.36 -5.12,-11.84 -0.76,-16.61l0 0c4.36,-4.78 11.83,-5.13 16.61,-0.77l102.62 93.62c17.97,-11.93 42.38,-10.63 59.04,4.56 19.65,17.92 21.04,48.36 3.12,68.01zm-704.33 -838.97l0.81 0.75 -195.62 214.45 -0.82 -0.75c-26.19,-23.89 -27.9,-65.05 -3.81,-91.48l107.99 -118.38c24.1,-26.41 65.25,-28.48 91.45,-4.59zm187.04 175.83l-81.45 89.29 -160.74 -146.63 84.04 -92.13c-10.67,-21.19 -7.87,-47.76 9,-66.26l0 0c21.82,-23.92 59.24,-25.64 83.15,-3.82l145.33 132.58 -52.82 57.9 -26.52 29.07zm-108.99 119.48l-81.45 89.29 -62.35 68.34 -16.99 18.63 -145.33 -132.58c-23.91,-21.82 -25.63,-59.24 -3.81,-83.15l0 -0.01c16.87,-18.5 43.08,-23.71 65.15,-15.03l84.04 -92.13 160.74 146.62zm177.2 404.91l0 0c-21.82,23.92 -59.24,25.64 -83.15,3.82l-50.1 -45.69 79.34 -86.97 0.01 0 81.45 -89.28 17.65 16.1 -67.68 74.2c-7.56,8.29 -6.97,21.29 1.33,28.86 8.3,7.57 21.29,6.98 28.86,-1.32l67.68 -74.2 17.65 16.1 -84.04 92.13c10.67,21.19 7.87,47.76 -9,66.26zm269.79 -295.75l0 0.01c-16.88,18.5 -43.08,23.71 -65.15,15.03l-84.05 92.14 -17.65 -16.11 67.68 -74.2c7.57,-8.3 6.98,-21.29 -1.32,-28.86 -8.3,-7.57 -21.29,-6.96 -28.86,1.33l-67.68 74.2 -17.66 -16.11 81.46 -89.29 -0.01 0 79.34 -86.97 50.1 45.69c23.91,21.82 25.63,59.24 3.81,83.15zm-100.49 -12l0 0zm-190.45 208.77l0 0zm-333.87 36.58l0 0c7.57,-8.3 6.97,-21.29 -1.33,-28.86l-43.31 -39.51c-8.3,-7.57 -21.29,-6.97 -28.86,1.32l0 0c-7.57,8.3 -6.97,21.29 1.33,28.86l43.31 39.52c8.3,7.57 21.29,6.97 28.86,-1.33zm131.26 119.74l0 0c7.57,-8.3 6.98,-21.29 -1.32,-28.86l-43.32 -39.51c-8.3,-7.57 -21.29,-6.98 -28.86,1.32l0 0c-7.57,8.3 -6.97,21.29 1.33,28.86l43.31 39.51c8.3,7.57 21.29,6.98 28.86,-1.32zm-218.67 -23.92l0 0c7.57,-8.29 6.98,-21.29 -1.32,-28.86l-43.31 -39.51c-8.3,-7.57 -21.29,-6.97 -28.86,1.33l0 0c-7.57,8.29 -6.98,21.28 1.32,28.85l43.31 39.52c8.3,7.57 21.29,6.97 28.86,-1.33zm131.27 119.74l0 0c7.57,-8.3 6.97,-21.29 -1.33,-28.86l-43.31 -39.51c-8.3,-7.57 -21.29,-6.98 -28.86,1.32l0 0c-7.57,8.3 -6.97,21.29 1.32,28.86l43.32 39.52c8.3,7.57 21.29,6.97 28.86,-1.33zm-218.67 -23.92l0 0c7.57,-8.29 6.97,-21.28 -1.33,-28.85l-43.31 -39.52c-8.3,-7.57 -21.29,-6.97 -28.86,1.33l0 0c-7.57,8.29 -6.97,21.29 1.33,28.86l43.31 39.51c8.3,7.57 21.29,6.97 28.86,-1.33zm131.26 119.74l0 0c7.57,-8.3 6.98,-21.29 -1.32,-28.86l-43.32 -39.51c-8.3,-7.57 -21.29,-6.97 -28.86,1.32l0 0c-7.57,8.3 -6.97,21.29 1.33,28.86l43.31 39.52c8.3,7.57 21.29,6.97 28.86,-1.33zm-218.67 -23.91l0 0c7.57,-8.3 6.98,-21.29 -1.32,-28.86l-43.32 -39.52c-8.29,-7.57 -21.28,-6.97 -28.85,1.33l0 0c-7.57,8.3 -6.98,21.29 1.32,28.86l43.31 39.51c8.3,7.57 21.29,6.97 28.86,-1.32zm131.27 119.73l0 0c7.57,-8.29 6.97,-21.29 -1.33,-28.86l-43.31 -39.51c-8.3,-7.57 -21.29,-6.97 -28.86,1.33l0 0c-7.57,8.29 -6.97,21.28 1.32,28.85l43.32 39.52c8.3,7.57 21.29,6.97 28.86,-1.33zm-218.67 -23.91l0 0c7.57,-8.3 6.97,-21.29 -1.33,-28.86l-43.31 -39.51c-8.3,-7.57 -21.29,-6.98 -28.86,1.32l0 0c-7.57,8.3 -6.98,21.29 1.32,28.86l43.32 39.51c8.29,7.57 21.29,6.98 28.86,-1.32zm131.26 119.74l0 0c7.57,-8.3 6.97,-21.29 -1.33,-28.86l-43.31 -39.51c-8.3,-7.57 -21.29,-6.98 -28.86,1.32l0 0c-7.57,8.3 -6.97,21.29 1.33,28.86l43.31 39.51c8.3,7.57 21.29,6.98 28.86,-1.32zm-212.53 -30.66l0 0c4.36,-4.77 4.01,-12.25 -0.77,-16.61l-56.12 -51.21c-4.78,-4.36 -12.26,-4.01 -16.62,0.77l0 0c-4.36,4.77 -4.02,12.25 0.76,16.61l56.13 51.21c4.78,4.36 12.26,4.01 16.62,-0.77zm131.26 119.74l0 0c4.36,-4.78 4.02,-12.25 -0.76,-16.61l-56.13 -51.21c-4.78,-4.36 -12.26,-4.02 -16.62,0.76l0 0c-4.36,4.78 -4.01,12.26 0.77,16.62l56.12 51.2c4.78,4.36 12.26,4.02 16.62,-0.76zm829.81 -1173.27l0 0c-7.57,8.3 -20.56,8.89 -28.86,1.32l-43.32 -39.51c-8.29,-7.57 -8.89,-20.56 -1.32,-28.86l0 0c7.57,-8.3 20.56,-8.89 28.86,-1.32l43.31 39.51c8.3,7.57 8.9,20.56 1.33,28.86zm131.26 119.74l0 0c-7.57,8.29 -20.56,8.89 -28.86,1.32l-43.31 -39.51c-8.3,-7.57 -8.9,-20.56 -1.33,-28.86l0 0c7.57,-8.3 20.56,-8.9 28.86,-1.33l43.32 39.52c8.29,7.57 8.89,20.56 1.32,28.86zm-43.85 -215.56l0 0c-7.57,8.3 -20.56,8.89 -28.86,1.32l-43.31 -39.51c-8.3,-7.57 -8.89,-20.56 -1.32,-28.86l0 0c7.57,-8.3 20.56,-8.9 28.85,-1.33l43.32 39.52c8.3,7.57 8.89,20.56 1.32,28.86zm131.27 119.73l0 0c-7.57,8.3 -20.56,8.9 -28.86,1.33l-43.32 -39.52c-8.3,-7.57 -8.89,-20.56 -1.32,-28.85l0 0c7.57,-8.3 20.56,-8.9 28.86,-1.33l43.31 39.52c8.3,7.57 8.9,20.56 1.33,28.85zm-43.85 -215.55l0 0c-7.57,8.29 -20.56,8.89 -28.86,1.32l-43.32 -39.51c-8.29,-7.57 -8.89,-20.56 -1.32,-28.86l0 0c7.57,-8.3 20.56,-8.9 28.86,-1.33l43.31 39.52c8.3,7.57 8.9,20.56 1.33,28.86zm131.26 119.73l0 0c-7.57,8.3 -20.56,8.9 -28.86,1.33l-43.31 -39.52c-8.3,-7.57 -8.9,-20.56 -1.33,-28.86l0 0c7.57,-8.29 20.56,-8.89 28.86,-1.32l43.32 39.51c8.3,7.57 8.89,20.57 1.32,28.86zm-43.85 -215.56l0 0c-7.57,8.3 -20.56,8.9 -28.86,1.33l-43.31 -39.52c-8.3,-7.57 -8.89,-20.56 -1.32,-28.85l0 0c7.57,-8.3 20.56,-8.9 28.85,-1.33l43.32 39.52c8.3,7.57 8.89,20.56 1.32,28.85zm131.27 119.74l0 0c-7.57,8.3 -20.56,8.9 -28.86,1.33l-43.32 -39.52c-8.3,-7.57 -8.89,-20.56 -1.32,-28.86l0 0c7.57,-8.29 20.56,-8.89 28.86,-1.32l43.31 39.51c8.3,7.57 8.9,20.56 1.33,28.86zm-43.85 -215.56l0 0c-7.57,8.3 -20.56,8.89 -28.86,1.32l-43.31 -39.51c-8.3,-7.57 -8.9,-20.56 -1.33,-28.86l0 0c7.57,-8.3 20.56,-8.89 28.86,-1.32l43.32 39.51c8.29,7.57 8.89,20.56 1.32,28.86zm131.26 119.74l0 0c-7.57,8.3 -20.56,8.89 -28.86,1.32l-43.31 -39.51c-8.3,-7.57 -8.89,-20.56 -1.32,-28.86l0 0c7.57,-8.3 20.56,-8.89 28.86,-1.32l43.31 39.51c8.3,7.57 8.89,20.56 1.32,28.86zm-49.99 -208.82l0 0c-4.36,4.77 -11.84,5.12 -16.62,0.76l-56.13 -51.21c-4.77,-4.36 -5.12,-11.83 -0.76,-16.61l0 0c4.36,-4.78 11.84,-5.12 16.62,-0.76l56.13 51.2c4.78,4.36 5.12,11.84 0.76,16.62zm131.26 119.73l0 0c-4.36,4.78 -11.83,5.13 -16.61,0.77l-56.13 -51.21c-4.78,-4.36 -5.12,-11.84 -0.76,-16.61l0 0c4.35,-4.78 11.83,-5.13 16.61,-0.77l56.13 51.21c4.78,4.36 5.12,11.84 0.76,16.61z"/>
  </g>
  <polygon class="fil1" points="15942.84,1191.3 16219.15,1191.3 16219.15,2168.12 15942.84,2168.12 "/>
  <path id="1" class="fil1" d="M16908.5 2187.66c-103.26,0 -196.06,-21.86 -278.39,-65.59 -82.33,-43.72 -146.99,-104.19 -193.97,-181.41 -46.98,-77.21 -70.48,-164.19 -70.48,-260.95 0,-96.75 23.49,-183.73 70.48,-260.95 46.97,-77.21 111.64,-137.68 193.97,-181.4 82.33,-43.73 175.13,-65.59 278.39,-65.59 103.27,0 196.07,21.86 278.4,65.59 82.33,43.72 146.98,104.19 193.97,181.4 46.98,77.22 70.48,164.2 70.48,260.95 0,96.76 -23.49,183.74 -70.48,260.95 -46.98,77.22 -111.64,137.69 -193.97,181.41 -82.33,43.73 -175.13,65.59 -278.4,65.59zm0 -228.86c49.3,0 93.97,-11.64 133.97,-34.89 40,-23.26 71.64,-56.06 94.89,-98.38 23.26,-42.33 34.89,-90.95 34.89,-145.83 0,-54.89 -11.63,-103.49 -34.89,-145.82 -23.25,-42.33 -54.89,-75.12 -94.89,-98.38 -40,-23.25 -84.66,-34.89 -133.97,-34.89 -49.3,0 -93.96,11.64 -133.96,34.89 -40.01,23.26 -71.64,56.05 -94.9,98.38 -23.25,42.33 -34.89,90.94 -34.89,145.82 0,54.89 11.64,103.5 34.89,145.83 23.26,42.32 54.89,75.12 94.9,98.38 40,23.25 84.65,34.89 133.96,34.89z"/>
  <polygon id="2" class="fil1" points="18525.84,1191.3 18525.84,2168.12 18298.39,2168.12 17867.19,1647.61 17867.19,2168.12 17596.46,2168.12 17596.46,1191.3 17823.93,1191.3 18255.13,1711.8 18255.13,1191.3 "/>
  <path id="3" class="fil1" d="M19213.81 2187.66c-103.26,0 -196.06,-21.86 -278.39,-65.59 -82.33,-43.72 -146.99,-104.19 -193.97,-181.41 -46.98,-77.21 -70.48,-164.19 -70.48,-260.95 0,-96.75 23.49,-183.73 70.48,-260.95 46.97,-77.21 111.64,-137.68 193.97,-181.4 82.33,-43.73 175.13,-65.59 278.39,-65.59 103.27,0 196.07,21.86 278.4,65.59 82.33,43.72 146.98,104.19 193.97,181.4 46.98,77.22 70.48,164.2 70.48,260.95 0,96.76 -23.49,183.74 -70.48,260.95 -46.98,77.22 -111.64,137.69 -193.97,181.41 -82.33,43.73 -175.13,65.59 -278.4,65.59zm0 -228.86c49.3,0 93.97,-11.64 133.97,-34.89 40,-23.26 71.64,-56.06 94.89,-98.38 23.26,-42.33 34.89,-90.95 34.89,-145.83 0,-54.89 -11.63,-103.49 -34.89,-145.82 -23.25,-42.33 -54.89,-75.12 -94.89,-98.38 -40,-23.25 -84.66,-34.89 -133.97,-34.89 -49.3,0 -93.96,11.64 -133.96,34.89 -40.01,23.26 -71.64,56.05 -94.9,98.38 -23.25,42.33 -34.89,90.94 -34.89,145.82 0,54.89 11.64,103.5 34.89,145.83 23.26,42.32 54.89,75.12 94.9,98.38 40,23.25 84.65,34.89 133.96,34.89z"/>
  <path id="4" class="fil1" d="M20245.06 2187.66c-79.07,0 -155.82,-9.77 -230.25,-29.3 -74.43,-19.54 -134.9,-45.59 -181.41,-78.15l90.71 -203.73c43.72,28.83 94.43,52.1 152.11,69.77 57.68,17.68 114.43,26.51 170.25,26.51 106.05,0 159.08,-26.51 159.08,-79.54 0,-27.9 -15.12,-48.6 -45.35,-62.09 -30.24,-13.5 -78.84,-27.68 -145.82,-42.56 -73.5,-15.82 -134.9,-32.8 -184.2,-50.94 -49.3,-18.15 -91.64,-47.21 -126.98,-87.22 -35.36,-40 -53.03,-93.96 -53.03,-161.87 0,-59.54 16.28,-113.27 48.83,-161.17 32.57,-47.91 81.17,-85.82 145.83,-113.74 64.65,-27.9 143.96,-41.86 237.92,-41.86 64.19,0 127.45,7.21 189.79,21.63 62.33,14.42 117.22,35.59 164.66,63.49l-85.12 205.13c-93.03,-50.24 -183.27,-75.36 -270.72,-75.36 -54.89,0 -94.9,8.14 -120.01,24.42 -25.12,16.28 -37.68,37.45 -37.68,63.49 0,26.05 14.89,45.59 44.65,58.61 29.77,13.03 77.68,26.51 143.73,40.47 74.43,15.82 136.06,32.8 184.9,50.94 48.83,18.14 91.17,46.98 126.98,86.52 35.82,39.53 53.73,93.26 53.73,161.17 0,58.61 -16.28,111.64 -48.84,159.08 -32.56,47.45 -81.4,85.36 -146.52,113.74 -65.12,28.37 -144.19,42.56 -237.23,42.56z"/>
  <path id="5" class="fil1" d="M21251.19 1191.3c88.37,0 165.12,14.65 230.25,43.95 65.12,29.3 115.36,71.18 150.72,125.59 35.35,54.43 53.03,118.38 53.03,191.88 0,73.5 -17.68,137.22 -53.03,191.18 -35.36,53.96 -85.59,95.59 -150.72,124.89 -65.12,29.3 -141.87,43.96 -230.25,43.96l-170.25 0 0 255.37 -276.31 0 0 -976.82 446.55 0zm-16.75 503.76c56.75,0 99.54,-12.33 128.38,-36.98 28.83,-24.66 43.25,-59.78 43.25,-105.36 0,-45.58 -14.42,-80.94 -43.25,-106.05 -28.84,-25.12 -71.64,-37.68 -128.38,-37.68l-153.5 0 0 286.07 153.5 0z"/>
  <polygon id="6" class="fil1" points="22748.51,1191.3 22748.51,2168.12 22472.21,2168.12 22472.21,1787.16 22095.45,1787.16 22095.45,2168.12 21819.14,2168.12 21819.14,1191.3 22095.45,1191.3 22095.45,1558.3 22472.21,1558.3 22472.21,1191.3 "/>
  <polygon id="7" class="fil1" points="23728.14,1954.61 23728.14,2168.12 22943.88,2168.12 22943.88,1191.3 23710,1191.3 23710,1404.81 23217.4,1404.81 23217.4,1569.47 23651.39,1569.47 23651.39,1775.99 23217.4,1775.99 23217.4,1954.61 "/>
  <path id="8" class="fil1" d="M24308.65 1908.56l-150.71 0 0 259.56 -276.31 0 0 -976.82 446.55 0c88.37,0 165.12,14.65 230.25,43.95 65.12,29.3 115.36,71.18 150.72,125.59 35.35,54.43 53.03,118.38 53.03,191.88 0,70.71 -16.52,132.34 -49.54,184.9 -33.03,52.56 -80.24,93.73 -141.64,123.49l210.72 307 -295.84 0 -177.22 -259.56zm174.43 -355.84c0,-45.58 -14.42,-80.94 -43.25,-106.05 -28.84,-25.12 -71.64,-37.68 -128.38,-37.68l-153.5 0 0 286.07 153.5 0c56.75,0 99.54,-12.33 128.38,-36.98 28.83,-24.66 43.25,-59.78 43.25,-105.36z"/>
  <polygon id="9" class="fil1" points="25698.53,1954.61 25698.53,2168.12 24914.27,2168.12 24914.27,1191.3 25680.39,1191.3 25680.39,1404.81 25187.79,1404.81 25187.79,1569.47 25621.78,1569.47 25621.78,1775.99 25187.79,1775.99 25187.79,1954.61 "/>
  <polygon class="fil2" points="15942.83,2598.49 16191.51,2598.49 16191.51,3477.63 15942.83,3477.63 "/>
  <polygon id="1" class="fil2" points="17205.03,2598.49 17205.03,3477.63 17000.31,3477.63 16612.24,3009.17 16612.24,3477.63 16368.59,3477.63 16368.59,2598.49 16573.3,2598.49 16961.39,3066.94 16961.39,2598.49 "/>
  <path id="2" class="fil2" d="M17689.81 3495.21c-71.17,0 -140.24,-8.78 -207.22,-26.37 -66.98,-17.58 -121.41,-41.02 -163.27,-70.33l81.63 -183.37c39.36,25.96 84.99,46.89 136.9,62.8 51.92,15.91 102.99,23.86 153.23,23.86 95.45,0 143.17,-23.86 143.17,-71.59 0,-25.12 -13.61,-43.75 -40.82,-55.89 -27.2,-12.15 -70.96,-24.91 -131.24,-38.31 -66.15,-14.24 -121.41,-29.51 -165.78,-45.84 -44.38,-16.33 -82.47,-42.49 -114.29,-78.49 -31.83,-36.01 -47.73,-84.57 -47.73,-145.69 0,-53.59 14.66,-101.93 43.96,-145.05 29.3,-43.12 73.06,-77.24 131.25,-102.36 58.19,-25.11 129.57,-37.68 214.13,-37.68 57.78,0 114.71,6.49 170.81,19.47 56.1,12.98 105.5,32.03 148.2,57.15l-76.61 184.61c-83.73,-45.21 -164.95,-67.81 -243.65,-67.81 -49.4,0 -85.4,7.32 -108.01,21.98 -22.6,14.65 -33.91,33.7 -33.91,57.14 0,23.44 13.4,41.03 40.19,52.75 26.79,11.73 69.92,23.86 129.37,36.43 66.97,14.23 122.45,29.51 166.4,45.83 43.96,16.33 82.05,42.29 114.29,77.87 32.24,35.59 48.35,83.94 48.35,145.06 0,52.75 -14.65,100.47 -43.95,143.17 -29.3,42.7 -73.27,76.82 -131.88,102.36 -58.61,25.53 -129.78,38.3 -213.51,38.3z"/>
  <polygon id="3" class="fil2" points="18368.01,2795.67 18097.99,2795.67 18097.99,2598.49 18885.45,2598.49 18885.45,2795.67 18616.69,2795.67 18616.69,3477.63 18368.01,3477.63 "/>
  <polygon id="4" class="fil2" points="18978.39,2598.49 19227.06,2598.49 19227.06,3477.63 18978.39,3477.63 "/>
  <polygon id="5" class="fil2" points="19591.28,2795.67 19321.25,2795.67 19321.25,2598.49 20108.72,2598.49 20108.72,2795.67 19839.95,2795.67 19839.95,3477.63 19591.28,3477.63 "/>
  <path id="6" class="fil2" d="M20593.5 3495.21c-130.62,0 -232.14,-35.58 -304.56,-106.75 -72.43,-71.17 -108.63,-172.06 -108.63,-302.67l0 -487.29 248.67 0 0 479.76c0,140.66 55.68,211 167.03,211 110.53,0 165.78,-70.34 165.78,-211l0 -479.76 244.9 0 0 487.29c0,130.62 -36.21,231.51 -108.63,302.67 -72.43,71.18 -173.95,106.75 -304.56,106.75z"/>
  <polygon id="7" class="fil2" points="21348.31,2795.67 21078.28,2795.67 21078.28,2598.49 21865.75,2598.49 21865.75,2795.67 21596.98,2795.67 21596.98,3477.63 21348.31,3477.63 "/>
  <polygon id="8" class="fil2" points="22664.51,3285.47 22664.51,3477.63 21958.69,3477.63 21958.69,2598.49 22648.18,2598.49 22648.18,2790.64 22204.85,2790.64 22204.85,2938.84 22595.44,2938.84 22595.44,3124.71 22204.85,3124.71 22204.85,3285.47 "/>
  <polygon class="fil3" points="-0,1193.38 272.12,1193.38 272.12,1766.91 675.4,1193.38 934.96,1193.38 934.96,2170.2 662.84,2170.2 662.84,1598.06 260.95,2170.2 -0,2170.2 "/>
  <path id="1" class="fil3" d="M1624.31 2189.74c-103.26,0 -196.06,-21.86 -278.39,-65.59 -82.33,-43.72 -146.98,-104.19 -193.97,-181.41 -46.98,-77.21 -70.48,-164.19 -70.48,-260.95 0,-96.75 23.49,-183.73 70.48,-260.95 46.98,-77.21 111.64,-137.68 193.97,-181.4 82.33,-43.73 175.13,-65.59 278.39,-65.59 103.27,0 196.07,21.86 278.4,65.59 82.33,43.72 146.98,104.19 193.97,181.4 46.98,77.22 70.48,164.2 70.48,260.95 0,96.76 -23.49,183.74 -70.48,260.95 -46.98,77.22 -111.64,137.69 -193.97,181.41 -82.33,43.73 -175.13,65.59 -278.4,65.59zm0 -228.86c49.31,0 93.97,-11.64 133.97,-34.89 40,-23.26 71.64,-56.06 94.9,-98.38 23.25,-42.33 34.88,-90.95 34.88,-145.83 0,-54.89 -11.63,-103.49 -34.88,-145.82 -23.26,-42.33 -54.9,-75.12 -94.9,-98.38 -40,-23.25 -84.65,-34.89 -133.97,-34.89 -49.3,0 -93.96,11.64 -133.96,34.89 -40.01,23.26 -71.64,56.05 -94.9,98.38 -23.25,42.33 -34.89,90.94 -34.89,145.82 0,54.89 11.64,103.5 34.89,145.83 23.26,42.32 54.89,75.12 94.9,98.38 40,23.25 84.65,34.89 133.96,34.89z"/>
  <polygon id="2" class="fil3" points="3244.44,1193.38 3244.44,2170.2 2968.13,2170.2 2968.13,1789.24 2591.36,1789.24 2591.36,2170.2 2315.06,2170.2 2315.06,1193.38 2591.36,1193.38 2591.36,1560.38 2968.13,1560.38 2968.13,1193.38 "/>
  <path id="3" class="fil3" d="M3933.79 2189.74c-103.26,0 -196.06,-21.86 -278.39,-65.59 -82.33,-43.72 -146.98,-104.19 -193.97,-181.41 -46.98,-77.21 -70.48,-164.19 -70.48,-260.95 0,-96.75 23.49,-183.73 70.48,-260.95 46.98,-77.21 111.64,-137.68 193.97,-181.4 82.33,-43.73 175.13,-65.59 278.39,-65.59 103.27,0 196.07,21.86 278.4,65.59 82.33,43.72 146.98,104.19 193.97,181.4 46.98,77.22 70.48,164.2 70.48,260.95 0,96.76 -23.49,183.74 -70.48,260.95 -46.98,77.22 -111.64,137.69 -193.97,181.41 -82.33,43.73 -175.13,65.59 -278.4,65.59zm0 -228.86c49.31,0 93.97,-11.64 133.97,-34.89 40,-23.26 71.64,-56.06 94.9,-98.38 23.25,-42.33 34.88,-90.95 34.88,-145.83 0,-54.89 -11.63,-103.49 -34.88,-145.82 -23.26,-42.33 -54.9,-75.12 -94.9,-98.38 -40,-23.25 -84.65,-34.89 -133.97,-34.89 -49.3,0 -93.96,11.64 -133.96,34.89 -40.01,23.26 -71.64,56.05 -94.9,98.38 -23.25,42.33 -34.89,90.94 -34.89,145.82 0,54.89 11.64,103.5 34.89,145.83 23.26,42.32 54.89,75.12 94.9,98.38 40,23.25 84.65,34.89 133.96,34.89z"/>
  <path id="4" class="fil3" d="M5100.39 2189.74c-102.33,0 -194.2,-21.63 -275.6,-64.89 -81.41,-43.26 -145.36,-103.49 -191.88,-180.71 -46.52,-77.22 -69.78,-164.66 -69.78,-262.35 0,-97.68 23.25,-185.12 69.78,-262.34 46.51,-77.22 110.47,-137.45 191.88,-180.71 81.4,-43.26 173.27,-64.89 275.6,-64.89 89.3,0 169.79,15.82 241.41,47.44 71.64,31.64 131.18,77.22 178.62,136.76l-175.83 159.08c-63.26,-76.28 -140.01,-114.43 -230.25,-114.43 -53.03,0 -100.24,11.64 -141.64,34.89 -41.4,23.26 -73.5,56.05 -96.29,98.38 -22.79,42.33 -34.19,90.94 -34.19,145.82 0,54.89 11.4,103.5 34.19,145.83 22.79,42.32 54.89,75.12 96.29,98.38 41.4,23.25 88.61,34.89 141.64,34.89 90.24,0 166.98,-38.15 230.25,-114.43l175.83 159.08c-47.44,59.54 -106.98,105.12 -178.62,136.75 -71.63,31.64 -152.11,47.45 -241.41,47.45z"/>
  <path id="5" class="fil3" d="M6826.58 1678.99c0,127.45 -43.49,228.62 -130.48,303.51 -86.98,74.9 -212.81,116.99 -377.47,126.29l0 107.45 -252.58 0 0 -107.45c-164.67,-12.1 -290.5,-54.89 -377.48,-128.38 -86.98,-73.49 -130.48,-173.97 -130.48,-301.42 0,-127.44 43.26,-228.15 129.79,-302.11 86.51,-73.96 212.57,-116.99 378.17,-129.08l0 -100.47 252.58 0 0 100.47c164.66,11.17 290.49,53.73 377.47,127.68 86.98,73.97 130.48,175.14 130.48,303.51zm-507.95 214.91c82.79,-9.3 143.5,-31.64 182.1,-66.98 38.61,-35.35 57.92,-85.12 57.92,-149.32 0,-64.19 -19.77,-113.5 -59.31,-147.91 -39.54,-34.43 -99.78,-56.29 -180.71,-65.59l0 429.81zm-492.6 -214.91c0,63.26 20,112.11 60,146.52 40,34.43 100.01,56.75 180.02,66.98l0 -428.41c-83.73,9.3 -144.66,31.17 -182.81,65.59 -38.14,34.42 -57.21,84.19 -57.21,149.31z"/>
  <polygon id="6" class="fil3" points="7754.56,1956.69 7754.56,2170.2 6970.31,2170.2 6970.31,1193.38 7736.42,1193.38 7736.42,1406.89 7243.82,1406.89 7243.82,1571.55 7677.81,1571.55 7677.81,1778.07 7243.82,1778.07 7243.82,1956.69 "/>
  <path id="7" class="fil3" d="M8358.79 1193.38c88.37,0 165.13,14.65 230.26,43.95 65.11,29.3 115.36,71.18 150.71,125.59 35.35,54.43 53.03,118.38 53.03,191.88 0,73.5 -17.68,137.22 -53.03,191.18 -35.35,53.96 -85.59,95.59 -150.71,124.89 -65.12,29.3 -141.88,43.96 -230.26,43.96l-170.25 0 0 255.37 -276.3 0 0 -976.82 446.54 0zm-16.75 503.76c56.75,0 99.55,-12.33 128.38,-36.98 28.84,-24.66 43.26,-59.78 43.26,-105.36 0,-45.58 -14.42,-80.94 -43.26,-106.05 -28.83,-25.12 -71.64,-37.68 -128.38,-37.68l-153.5 0 0 286.07 153.5 0z"/>
  <path id="8" class="fil3" d="M9542.15 1980.42l-413.06 0 -76.75 189.79 -281.89 0 431.2 -976.82 272.12 0 432.6 976.82 -287.46 0 -76.75 -189.79zm-80.94 -203.73l-125.59 -312.59 -125.59 312.59 251.19 0z"/>
  <polygon class="fil3" points="1441.24,2605.89 1686.15,2605.89 1686.15,3122.07 2049.11,2605.89 2282.71,2605.89 2282.71,3485.03 2037.8,3485.03 2037.8,2970.1 1676.1,3485.03 1441.24,3485.03 "/>
  <polygon id="1" class="fil3" points="3307.54,2605.89 3307.54,3485.03 3058.87,3485.03 3058.87,3142.17 2719.77,3142.17 2719.77,3485.03 2471.1,3485.03 2471.1,2605.89 2719.77,2605.89 2719.77,2936.2 3058.87,2936.2 3058.87,2605.89 "/>
  <path id="2" class="fil3" d="M3924.2 3502.61c-92.1,0 -174.78,-19.46 -248.04,-58.4 -73.26,-38.93 -130.83,-93.15 -172.69,-162.64 -41.86,-69.49 -62.8,-148.19 -62.8,-236.11 0,-87.91 20.94,-166.62 62.8,-236.12 41.86,-69.49 99.43,-123.7 172.69,-162.64 73.27,-38.93 155.95,-58.4 248.04,-58.4 80.38,0 152.81,14.24 217.28,42.7 64.46,28.47 118.05,69.49 160.75,123.08l-158.24 143.17c-56.94,-68.65 -126.01,-102.98 -207.23,-102.98 -47.72,0 -90.22,10.47 -127.47,31.4 -37.26,20.93 -66.14,50.45 -86.65,88.54 -20.52,38.1 -30.78,81.84 -30.78,131.25 0,49.39 10.26,93.15 30.78,131.25 20.51,38.09 49.39,67.6 86.65,88.53 37.26,20.94 79.75,31.41 127.47,31.41 81.22,0 150.3,-34.33 207.23,-102.99l158.24 143.18c-42.7,53.58 -96.29,94.61 -160.75,123.07 -64.47,28.47 -136.9,42.7 -217.28,42.7z"/>
  <polygon id="3" class="fil3" points="5114.82,2803.07 4846.06,2803.07 4846.06,3485.03 4601.15,3485.03 4601.15,2803.07 4331.13,2803.07 4331.13,2605.89 5114.82,2605.89 "/>
  <polygon id="4" class="fil3" points="5229.11,2605.89 5474.01,2605.89 5474.01,3122.07 5836.97,2605.89 6070.57,2605.89 6070.57,3485.03 5825.67,3485.03 5825.67,2970.1 5463.97,3485.03 5229.11,3485.03 "/>
  <polygon id="5" class="fil3" points="6967.3,2803.07 6698.54,2803.07 6698.54,3485.03 6453.63,3485.03 6453.63,2803.07 6183.61,2803.07 6183.61,2605.89 6967.3,2605.89 "/>
  <path id="6" class="fil3" d="M7879.1 2605.89l-364.21 679.45c-38.52,72.85 -85.61,128.1 -141.29,165.78 -55.68,37.68 -116.59,56.52 -182.73,56.52 -48.56,0 -100.48,-10.89 -155.74,-32.66l59.03 -183.36c34.33,10.05 63.63,15.07 87.91,15.07 24.28,0 45.84,-5.44 64.68,-16.33 18.84,-10.89 36.21,-28.04 52.12,-51.5l-341.61 -632.98 262.49 0 204.71 424.5 212.25 -424.5 242.39 0z"/>
  <polygon id="7" class="fil3" points="8664.05,2803.07 8395.29,2803.07 8395.29,3485.03 8150.39,3485.03 8150.39,2803.07 7880.36,2803.07 7880.36,2605.89 8664.05,2605.89 "/>
  <path id="8" class="fil3" d="M9226.71 2885.96c108,0 191.32,24.07 249.93,72.22 58.61,48.14 87.91,119.52 87.91,214.13 0,101.31 -32.66,178.76 -97.96,232.35 -65.31,53.59 -156.16,80.38 -272.54,80.38l-415.71 0 0 -879.14 244.9 0 0 280.07 203.46 0zm-48.98 420.73c41.86,0 75.15,-11.31 99.84,-33.91 24.7,-22.61 37.06,-54.43 37.06,-95.46 0,-76.19 -45.63,-114.29 -136.9,-114.29l-154.48 0 0 243.65 154.48 0zm483.53 -700.8l244.9 0 0 879.14 -244.9 0 0 -879.14z"/>
 </g>
</svg>
